<svg xmlns="http://www.w3.org/2000/svg" width="80" height="80" viewBox="0 0 80 80">
  <rect x="0" y="0" width="80" height="80" fill="#F3F4F6" rx="12"/>
  <g transform="translate(16, 16)">
    <!-- Placeholder QR grid -->
    <rect x="0" y="0" width="20" height="20" rx="4" fill="#2264c0"/>
    <rect x="4" y="4" width="12" height="12" rx="2" fill="#F3F4F6"/>
    <rect x="28" y="0" width="20" height="20" rx="4" fill="#2264c0"/>
    <rect x="32" y="4" width="12" height="12" rx="2" fill="#F3F4F6"/>
    <rect x="0" y="28" width="20" height="20" rx="4" fill="#2264c0"/>
    <rect x="4" y="32" width="12" height="12" rx="2" fill="#F3F4F6"/>
    <rect x="28" y="28" width="4" height="4" rx="1" fill="#2264c0"/>
    <rect x="36" y="28" width="4" height="4" rx="1" fill="#2264c0"/>
    <rect x="28" y="36" width="4" height="4" rx="1" fill="#2264c0"/>
    <rect x="36" y="36" width="4" height="4" rx="1" fill="#2264c0"/>
    <rect x="44" y="28" width="4" height="4" rx="1" fill="#2264c0"/>
    <rect x="44" y="36" width="4" height="4" rx="1" fill="#2264c0"/>
    <rect x="28" y="44" width="4" height="4" rx="1" fill="#2264c0"/>
    <rect x="36" y="44" width="4" height="4" rx="1" fill="#2264c0"/>
    <rect x="44" y="44" width="4" height="4" rx="1" fill="#2264c0"/>
  </g>
</svg>